# xmcd
#
# Track frame offsets:
#	150
#	14775
#	28012
#	42087
#	54687
#	71850
#	85422
#	97837
#	112752
#	128965
#	141797
#	158237
#	171352
#	184725
#	198767
#	215050
#
# Disc length: 3035 seconds
#
# Revision: 3
# Processed by: cddbd v1.5.2PL0 Copyright (c) Steve Scherf et al.
# Submitted via: MusicWizard 7.0.2
#
DISCID=e50bd910
DTITLE=Various Artist - Trucker Hit-Express CD 1
DYEAR=1900
DGENRE=Country
TTITLE0=Tom Astor and Dick Curless - Ein Grabstein Überall
TTITLE1=Jonny Hill - Ich Bin Wieder Zuhaus
TTITLE2=Tom Astor - Mit Dem Truck Durch Texas Fahrn´
TTITLE3=Ralf Paulsen - Freie Fahrt Für Freie Europäer
TTITLE4=Nashville Music Company - Country In Good Old Germany
TTITLE5=Tom Astor - Ich Trink Noch Ein Glas Mit Meinen Freunden
TTITLE6=Dä Druije Piter - Un Janz Kölle Steht Im Stau
TTITLE7=Tom Astor - Dies Lied Ist Für Die Mädchen
TTITLE8=Jonny Hill - Seine Freunde Sind Die Träume
TTITLE9=Tom Astor - Und So Bin Ixh Auf Den Hund Gekommen
TTITLE10=Dagmar-The Lady Of Country - Ich Fahr Nen Laster Wie Papa
TTITLE11=Tom Astor and Wild Rose - Home Sweet Highway
TTITLE12=Nashville Music Company - Wertvolle Fracht
TTITLE13=Tom Astor - Das Glück Hat Ihn Nie Gelliebt
TTITLE14=Gudrun Lange and Kactus - Solange Ich Noch Träume Hab
TTITLE15=Jim Erhardt - Heute Fährt Er Für Geld
EXTD=Ranger 781021\n5073/5074
EXTT0=
EXTT1=
EXTT2=
EXTT3=
EXTT4=
EXTT5=
EXTT6=
EXTT7=
EXTT8=
EXTT9=
EXTT10=
EXTT11=
EXTT12=
EXTT13=
EXTT14=
EXTT15=
PLAYORDER=
